<svg xmlns="http://www.w3.org/2000/svg" xmlns:xlink="http://www.w3.org/1999/xlink" viewBox="0 0 500 500">
   <defs>
      <linearGradient id="prefix__a">
         <stop offset="0" stop-color="#50e6ff" />
         <stop offset="1" stop-color="#0078d4" />
      </linearGradient>
      <linearGradient id="prefix__b" x1="116.367" x2="469.634" y1="250" y2="250" gradientUnits="userSpaceOnUse"
         xlink:href="#prefix__a" />
   </defs>
   <circle cx="250" cy="250" r="250" fill="#fff" />
   <path fill="url(#prefix__b)"
      d="M303.687 154.94c6.09 6.118 13.636 9.149 22.694 9.149 8.995 0 16.54-3.031 22.659-9.149 6.09-6.09 9.142-13.629 9.142-22.68 0-9.002-3.06-16.548-9.142-22.666-6.118-6.09-13.664-9.142-22.66-9.142-9.057 0-16.603 3.059-22.686 9.142-6.118 6.118-9.15 13.664-9.15 22.659 0 9.058 3.032 16.604 9.15 22.687M196.307 345.06c-6.09-6.09-13.664-9.149-22.666-9.149-9.03 0-16.57 3.059-22.68 9.149-6.09 6.09-9.15 13.657-9.15 22.659 0 9.03 3.06 16.569 9.143 22.68 6.118 6.09 13.664 9.121 22.687 9.121 9.002 0 16.576-3.031 22.659-9.114 6.09-6.118 9.149-13.664 9.149-22.687 0-9.002-3.06-16.576-9.15-22.659m-45.338-190.12c6.118 6.118 13.664 9.149 22.687 9.149 9.002 0 16.576-3.031 22.659-9.149 6.09-6.09 9.149-13.629 9.149-22.68 0-9.002-3.06-16.548-9.15-22.666-6.09-6.09-13.656-9.142-22.658-9.142-9.03 0-16.57 3.059-22.68 9.142-6.09 6.118-9.15 13.664-9.15 22.659 0 9.058 3.06 16.604 9.143 22.687m219.96 13.125c-8.49 10.605-19.095 17.227-31.835 19.873v33.404c.504 6.923 0 14.609-1.568 23.072-3.213 14.35-8.764 26.019-16.723 35.014-11.67 12.208-26.782 18.291-45.346 18.291h-89.082v14.315c12.74 2.674 23.345 9.296 31.836 19.901 8.463 10.598 12.712 22.54 12.712 35.784 0 15.911-5.558 29.428-16.695 40.565C203.09 419.414 189.545 425 173.655 425c-15.911 0-29.456-5.586-40.593-16.716-11.137-11.144-16.695-24.654-16.695-40.565 0-13.251 4.249-25.186 12.74-35.784 8.463-10.605 19.096-17.227 31.8-19.901V187.938c-12.704-2.646-23.337-9.268-31.8-19.873-8.491-10.598-12.74-22.54-12.74-35.805 0-15.89 5.55-29.4 16.688-40.53C144.192 80.579 157.737 75 173.655 75c15.89 0 29.428 5.586 40.558 16.716 11.144 11.144 16.695 24.654 16.695 40.544 0 13.272-4.25 25.214-12.712 35.812-8.491 10.605-19.096 17.227-31.836 19.873v84.336h89.089c11.669 0 20.405-3.178 26.25-9.562 5.824-6.356 9.534-14.819 11.137-25.452 1.07-5.824 1.337-10.871.805-15.12v-34.202c-12.74-2.646-23.345-9.268-31.808-19.873-8.491-10.598-12.74-22.54-12.74-35.812 0-15.89 5.558-29.4 16.688-40.53C296.918 80.579 310.463 75 326.38 75c15.89 0 29.4 5.586 40.53 16.716 11.137 11.137 16.723 24.654 16.723 40.537 0 13.272-4.25 25.214-12.712 35.812" />
</svg>